<?xml version="1.0" encoding="UTF-8" standalone="no"?>
<svg width="183px" height="106px" viewBox="0 0 183 106" version="1.1" xmlns="http://www.w3.org/2000/svg" xmlns:xlink="http://www.w3.org/1999/xlink" xmlns:sketch="http://www.bohemiancoding.com/sketch/ns">
    <!-- Generator: Sketch 3.4 (15575) - http://www.bohemiancoding.com/sketch -->
    <title>cloud</title>
    <desc>Created with Sketch.</desc>
    <defs></defs>
    <g id="web" stroke="none" stroke-width="1" fill="none" fill-rule="evenodd" sketch:type="MSPage">
        <g id="Desktop-HD" sketch:type="MSArtboardGroup" transform="translate(-629.000000, -2182.000000)">
            <g id="radio" sketch:type="MSLayerGroup" transform="translate(720.342053, 2347.462585) rotate(-45.000000) translate(-720.342053, -2347.462585) translate(674.342053, 2301.962585)" fill="#EAEAEA">
                <path d="M91.1447931,82.3779558 L80.9213294,82.3779558 C80.9213294,42.9433797 48.8809252,10.9753395 9.3570836,10.9753395 L9.3570836,0.774965747 C54.5271883,0.774965747 91.1447931,37.3098688 91.1447931,82.3779558 Z" id="Oval-6" sketch:type="MSShapeGroup"></path>
            </g>
            <path d="M793.872629,2247.64412 C792.998612,2227.50183 776.370857,2211.43992 755.986692,2211.43992 C751.530338,2211.43992 747.253518,2212.20759 743.281588,2213.61772 C735.599382,2195.5894 717.698904,2182.949 696.842205,2182.949 C669.868654,2182.949 647.839597,2204.091 646.463621,2230.6871 C636.171259,2235.30138 629,2245.6386 629,2257.6508 C629,2273.96517 642.21941,2287.18407 658.526378,2287.18407 L715.634998,2287.18407 L792.203626,2287.18407 C803.126652,2287.18407 812,2278.31722 812,2267.37941 C812,2257.00167 804.0248,2248.49174 793.872629,2247.64412 L793.872629,2247.64412 Z" id="cloud" stroke="#EAEAEA" stroke-width="10" sketch:type="MSShapeGroup"></path>
        </g>
    </g>
</svg>